<svg xmlns="http://www.w3.org/2000/svg" width="20.869" height="20" viewBox="0 0 20.869 20"><defs><style>.a{fill:#27539d;}</style></defs><path class="a" d="M10.435.5A10.344,10.344,0,0,0,0,10.754a10.271,10.271,0,0,0,7.135,9.729c.522.1.713-.221.713-.493,0-.243-.009-.889-.013-1.743-2.9.618-3.515-1.376-3.515-1.376a2.733,2.733,0,0,0-1.161-1.5c-.945-.636.073-.623.073-.623A2.183,2.183,0,0,1,4.83,15.8a2.247,2.247,0,0,0,3.039.853,2.171,2.171,0,0,1,.661-1.371c-2.317-.257-4.753-1.138-4.753-5.067A3.918,3.918,0,0,1,4.851,7.468a3.588,3.588,0,0,1,.091-2.714s.874-.275,2.87,1.051a10,10,0,0,1,5.217,0c1.983-1.326,2.856-1.051,2.856-1.051a3.687,3.687,0,0,1,.1,2.714,3.933,3.933,0,0,1,1.07,2.751c0,3.939-2.439,4.806-4.761,5.058a2.433,2.433,0,0,1,.7,1.9c0,1.372-.013,2.475-.013,2.808,0,.269.183.59.717.487a10.24,10.24,0,0,0,7.162-9.716A10.346,10.346,0,0,0,10.435.5Z" transform="translate(0 -0.5)"/></svg>