<svg xmlns="http://www.w3.org/2000/svg" width="14.828" height="11.121" viewBox="0 0 14.828 11.121"><defs><style>.a{fill:#fff;}</style></defs><path class="a" d="M14.548,67.672a.174.174,0,0,1,.281.136v5.923a1.391,1.391,0,0,1-1.39,1.39H1.39A1.391,1.391,0,0,1,0,73.731v-5.92a.173.173,0,0,1,.281-.136c.649.5,1.509,1.144,4.463,3.29.611.446,1.642,1.384,2.67,1.379s2.085-.95,2.673-1.379C13.042,68.819,13.9,68.176,14.548,67.672ZM7.414,71.414c.672.012,1.639-.846,2.126-1.2,3.843-2.789,4.136-3.032,5.022-3.727a.693.693,0,0,0,.266-.547v-.55A1.391,1.391,0,0,0,13.438,64H1.39A1.391,1.391,0,0,0,0,65.39v.55a.7.7,0,0,0,.266.547c.886.692,1.179.938,5.022,3.727C5.775,70.569,6.742,71.426,7.414,71.414Z" transform="translate(0 -64)"/></svg>