<svg xmlns="http://www.w3.org/2000/svg" width="24.2" height="22" viewBox="0 0 24.2 22"><defs><style>.a{fill:#27539d;}</style></defs><g transform="translate(0 -21.333)"><g transform="translate(0 21.333)"><g transform="translate(0 0)"><path class="a" d="M12.846,35.483h0L10.1,32.767l.032-.032a18.96,18.96,0,0,0,4.015-7.067h3.171V23.5H9.74V21.333H7.575V23.5H0v2.154H12.088a17.092,17.092,0,0,1-3.431,5.8,17.066,17.066,0,0,1-2.5-3.625H3.993a19.006,19.006,0,0,0,3.225,4.935L1.715,38.2l1.531,1.531L8.658,34.32l3.366,3.366Z" transform="translate(0 -21.333)"/><path class="a" d="M241.7,192h-2.164l-4.87,12.987h2.164l1.217-3.247h5.14l1.217,3.247h2.164Zm-2.841,7.575,1.759-4.691,1.759,4.691Z" transform="translate(-222.37 -182.987)"/></g></g></g></svg>