<svg xmlns="http://www.w3.org/2000/svg" width="25.73" height="34.826" viewBox="0 0 25.73 34.826"><defs><style>.a{fill:#fff;}</style></defs><g transform="translate(-48.08)"><g transform="translate(48.08)"><g transform="translate(0)"><path class="a" d="M60.945,0A12.879,12.879,0,0,0,48.08,12.865a14.843,14.843,0,0,0,1.091,4.953A20.747,20.747,0,0,0,50.658,20.6l8.821,13.365a1.678,1.678,0,0,0,2.932,0L71.233,20.6a20.662,20.662,0,0,0,1.487-2.781,14.839,14.839,0,0,0,1.091-4.953A12.879,12.879,0,0,0,60.945,0ZM71.324,17.231a19.011,19.011,0,0,1-1.355,2.535L61.147,33.132c-.174.264-.229.264-.4,0L51.922,19.766a19.019,19.019,0,0,1-1.355-2.536,13.473,13.473,0,0,1-.973-4.365,11.352,11.352,0,1,1,22.7,0A13.485,13.485,0,0,1,71.324,17.231Z" transform="translate(-48.08 0)"/><path class="a" d="M118.891,64.008a6.811,6.811,0,1,0,6.811,6.811A6.819,6.819,0,0,0,118.891,64.008Zm0,12.108a5.3,5.3,0,1,1,5.3-5.3A5.3,5.3,0,0,1,118.891,76.116Z" transform="translate(-106.026 -57.953)"/></g></g></g></svg>